<svg xmlns="http://www.w3.org/2000/svg" width="18pt" height="20pt" style="isolation:isolate" viewBox="0 0 18 20" id="user" fill="none">
  <defs>
    <clipPath id="a">
      <rect width="64" height="64"></rect>
    </clipPath>
  </defs>
  <g clip-path="url(#a)">
    <path d="M19.247 18.468C17.383 11.511 21.584 4.331 28.622 2.445 35.66.559 42.888 4.677 44.753 11.634 46.617 18.592 42.416 25.772 35.378 27.658 28.34 29.544 21.112 25.426 19.247 18.468zM44.003 31.262C53.176 33.928 61.012 43.833 61.012 55.553L61.012 58.776C61.012 60.556 59.567 62 57.788 62L6.212 62C4.433 62 2.988 60.556 2.988 58.776L2.988 55.553C2.988 43.833 10.824 33.928 19.997 31.262 20.851 31.014 21.986 31.384 22.53 32.088 23.946 33.922 27.739 35.922 32 35.922 36.261 35.922 40.054 33.922 41.47 32.088 42.014 31.384 43.149 31.014 44.003 31.262z"></path>
  </g>
</svg>
